<svg width="163" height="163" viewBox="0 0 163 163" fill="none" xmlns="http://www.w3.org/2000/svg">
<path d="M37.7043 114.904L34.5776 93.6537L31.4508 114.904C31.0546 117.599 29.8379 119.982 28.0411 121.777C26.2372 123.571 23.8604 124.798 21.1863 125.195L0 128.33L21.1863 131.459C23.7754 131.849 26.0815 133.005 27.9491 134.792C29.8379 136.672 31.0545 139.055 31.4508 141.75L34.5776 163L37.7043 141.75C38.1005 139.055 39.3172 136.679 41.114 134.877C42.9179 133.083 45.2877 131.855 47.9688 131.451L69.1551 128.323L47.9688 125.188C45.3726 124.805 43.0736 123.649 41.206 121.855C39.3172 119.975 38.1006 117.592 37.7043 114.897V114.904ZM32.8515 10.7386L31.274 0L29.6965 10.7386C29.3853 12.8736 28.4161 14.7602 26.9942 16.1859C25.5582 17.6045 23.6836 18.5833 21.5614 18.8954L10.8442 20.4771L21.5614 22.0588C23.5916 22.3567 25.3955 23.2646 26.8952 24.676C28.409 26.1868 29.3782 28.0735 29.6965 30.2085L31.274 40.9471L32.8515 30.2085C33.1628 28.0735 34.1319 26.1869 35.5538 24.7612C36.9899 23.3426 38.8574 22.3709 40.9796 22.0517L51.6968 20.47L40.9796 18.8883C38.9494 18.5904 37.1455 17.6825 35.6529 16.2711C34.132 14.7603 33.1628 12.8665 32.8515 10.7315V10.7386ZM117.443 52.3523L112.59 19.3635L107.737 52.3523C107.263 55.5795 105.82 58.4451 103.62 60.729C101.328 63.027 98.4067 64.5379 95.089 65.0273L62.1877 69.893L95.089 74.7587C98.3996 75.2481 101.328 76.7589 103.535 78.9718C105.743 81.199 107.249 84.1282 107.737 87.4407L112.59 120.43L117.443 87.4407C117.924 84.1284 119.438 81.199 121.645 78.9862C123.866 76.7589 126.788 75.2482 130.091 74.7589L163 69.8932L130.091 65.0275C126.788 64.5452 123.866 63.0272 121.659 60.8143C119.438 58.5871 117.931 55.6579 117.45 52.3454L117.443 52.3523Z" fill="white"/>
</svg>
