<svg width="25" height="25" viewBox="0 0 25 25" fill="none" xmlns="http://www.w3.org/2000/svg">
<path d="M0 12.4821C0 12.6543 0.0860091 12.7979 0.200688 12.884L3.15367 14.9799L1.63417 18.2817C1.57683 18.4252 1.57684 18.5975 1.66284 18.741C1.74885 18.8846 1.8922 18.9707 2.06422 18.9994L5.67661 19.3152L5.99197 22.9328C6.02064 23.1051 6.10665 23.2486 6.25 23.3348C6.39335 23.4209 6.56537 23.4209 6.70872 23.3635L10.0057 21.8418L12.0986 24.799C12.1846 24.9426 12.3567 25 12.5 25C12.672 25 12.8154 24.9139 12.9014 24.799L14.9943 21.8418L18.2913 23.3635C18.4346 23.4209 18.6067 23.4209 18.75 23.3348C18.8934 23.2486 18.9794 23.1051 19.008 22.9328L19.3234 19.3152L22.9358 18.9994C23.1078 18.9707 23.2511 18.8846 23.3372 18.741C23.4232 18.5975 23.4232 18.4252 23.3658 18.2817L21.8463 14.9799L24.7993 12.884C24.9427 12.7979 25 12.6256 25 12.4821C25 12.3385 24.914 12.1662 24.7993 12.0801L21.8463 9.98421L23.3658 6.68246C23.4232 6.5389 23.4232 6.36664 23.3372 6.22308C23.2511 6.07953 23.1078 5.9934 22.9358 5.96469L19.3234 5.64887L19.008 2.0313C18.9794 1.85903 18.8934 1.71548 18.75 1.62934C18.6067 1.54321 18.4346 1.54321 18.2913 1.60063L14.9943 3.12231L12.8727 0.193798C12.672 -0.0645995 12.242 -0.0645995 12.07 0.193798L9.97707 3.15102L6.68005 1.62934C6.5367 1.57192 6.36468 1.57192 6.22133 1.65805C6.07798 1.74419 5.99197 1.88774 5.9633 2.06001L5.64794 5.67758L2.03555 5.9934C1.86353 6.02211 1.72018 6.10824 1.63417 6.25179C1.54817 6.39535 1.54817 6.56761 1.6055 6.71117L3.125 10.0129L0.200688 12.0801C0.0573394 12.1662 0 12.3098 0 12.4821ZM13.5321 18.0233C13.2454 18.3104 12.8727 18.4826 12.4713 18.4826C12.07 18.4826 11.6972 18.3104 11.4106 18.0233C11.1239 17.7361 10.9805 17.3342 10.9805 16.9035C10.9805 16.5016 11.1525 16.0996 11.4106 15.7838C11.9553 15.2383 12.9874 15.2383 13.5321 15.7838C13.8188 16.0709 13.9622 16.4729 13.9622 16.9035C13.9622 17.3342 13.8188 17.7361 13.5321 18.0233ZM10.9805 8.06058C10.9805 7.19925 11.6399 6.48148 12.4713 6.48148C13.3028 6.48148 13.9622 7.17054 13.9622 8.06058V12.9414C13.9622 13.8028 13.3028 14.5205 12.4713 14.5205C11.6399 14.5205 10.9805 13.8315 10.9805 12.9414V8.06058Z" fill="#FFA217"/>
</svg>
