<svg width="66" height="66" viewBox="0 0 66 66" fill="none" xmlns="http://www.w3.org/2000/svg">
<path fill-rule="evenodd" clip-rule="evenodd" d="M55.154 0H10.846C7.97226 0.00908899 5.21881 1.15471 3.18676 3.18676C1.15471 5.21881 0.00908899 7.97226 0 10.846V55.154C0.00908899 58.0277 1.15471 60.7812 3.18676 62.8132C5.21881 64.8453 7.97226 65.9909 10.846 66H55.154C58.0277 65.9909 60.7812 64.8453 62.8132 62.8132C64.8453 60.7812 65.9909 58.0277 66 55.154V10.846C65.9909 7.97226 64.8453 5.21881 62.8132 3.18676C60.7812 1.15471 58.0277 0.00908899 55.154 0ZM45.8876 21.3085C48.3182 23.7391 49.9735 26.8359 50.6441 30.2073C51.3147 33.5787 50.9705 37.0732 49.655 40.249C48.3396 43.4248 46.112 46.1391 43.2538 48.0489C40.3957 49.9586 37.0355 50.9779 33.598 50.9779C30.1606 50.9779 26.8004 49.9586 23.9422 48.0489C21.0841 46.1391 18.8565 43.4248 17.541 40.249C16.2256 37.0732 15.8814 33.5787 16.552 30.2073C17.2226 26.8359 18.8778 23.7391 21.3085 21.3085C22.9223 19.6946 24.8383 18.4144 26.947 17.5409C29.0556 16.6675 31.3156 16.2179 33.598 16.2179C35.8804 16.2179 38.1405 16.6675 40.2491 17.5409C42.3578 18.4144 44.2737 19.6946 45.8876 21.3085ZM33.5984 12.2503C37.8207 12.2503 41.9481 13.5024 45.4588 15.8481C48.9694 18.1939 51.7057 21.528 53.3214 25.4288C54.9372 29.3297 55.36 33.6221 54.5363 37.7632C53.7125 41.9043 51.6793 45.7082 48.6938 48.6938C45.7082 51.6793 41.9043 53.7125 37.7632 54.5363C33.6221 55.36 29.3297 54.9372 25.4288 53.3214C21.528 51.7057 18.1939 48.9694 15.8481 45.4588C13.5024 41.9481 12.2503 37.8207 12.2503 33.5984C12.2503 27.9365 14.4995 22.5066 18.503 18.503C22.5066 14.4995 27.9365 12.2503 33.5984 12.2503ZM55.6395 7.5702C56.5774 7.5702 57.4943 7.84834 58.2742 8.36945C59.0541 8.89056 59.662 9.63123 60.0209 10.4978C60.3799 11.3644 60.4738 12.3179 60.2908 13.2379C60.1078 14.1578 59.6561 15.0029 58.9929 15.6661C58.3297 16.3293 57.4846 16.781 56.5647 16.964C55.6447 17.147 54.6912 17.0531 53.8246 16.6941C52.958 16.3352 52.2174 15.7273 51.6963 14.9474C51.1751 14.1675 50.897 13.2506 50.897 12.3127C50.8972 11.0549 51.3969 9.84879 52.2863 8.95945C53.1756 8.07011 54.3817 7.57039 55.6395 7.5702Z" fill="white"/>
</svg>
