<svg width="24" height="25" viewBox="0 0 24 25" fill="none" xmlns="http://www.w3.org/2000/svg">
<path d="M23.3988 6.1138L16.1446 0.348999C15.6611 -0.0354988 15.0141 -0.107952 14.4556 0.159829C13.8983 0.427616 13.5526 0.979171 13.5526 1.59581V3.50471H12.3483C8.6001 3.50471 5.44082 4.66185 3.21307 6.85095C1.25464 8.77583 0.116767 11.4035 0.00843375 14.2494C-0.0912103 16.8745 0.694867 19.395 2.22025 21.3469C3.91663 23.5162 6.34256 24.779 9.23574 24.9975C9.25911 25 9.28249 25 9.30709 25C9.69951 25 10.055 24.7519 10.1854 24.376C10.3244 23.978 10.1781 23.537 9.82869 23.2999C7.23673 21.547 5.97595 17.9713 6.89353 14.9813C7.32532 13.5748 8.60837 11.2162 12.348 11.2162H13.5523V13.1251C13.5523 13.743 13.898 14.2933 14.4552 14.5611C15.0125 14.8301 15.6595 14.7564 16.143 14.3719L23.3972 8.60713C23.7859 8.29881 24 7.85537 24 7.35908C24 6.86279 23.786 6.41936 23.3972 6.11103L23.3988 6.1138ZM15.4139 12.5789V10.288C15.4139 9.7745 14.9969 9.35808 14.4827 9.35808H12.3484C10.4798 9.35808 8.87799 9.85189 7.58902 10.8248C6.42652 11.7019 5.57031 12.9511 5.11393 14.4374C4.57141 16.205 4.61572 18.2122 5.24063 20.088C5.50881 20.8926 5.87785 21.6505 6.33426 22.3421C3.24901 20.8324 1.74838 17.5 1.86868 14.3207C2.03722 9.86283 5.34383 5.36565 12.3483 5.36565H14.4826C14.9968 5.36565 15.4138 4.94923 15.4138 4.43577V2.14482L21.9793 7.36182L15.4139 12.5789Z" fill="#F7F7F7"/>
</svg>
