<svg width="24" height="24" viewBox="0 0 24 24" fill="none" xmlns="http://www.w3.org/2000/svg">
<path d="M23.2252 0.0035192C23.0838 -0.009337 22.9424 0.0131616 22.8116 0.0688713L0.524615 9.49456H0.523544C0.224581 9.62098 0.0220438 9.90703 0.00168863 10.2306C-0.0186718 10.5552 0.146353 10.8637 0.428187 11.0266L6.42693 14.4549H6.428C6.62517 14.5685 6.85878 14.5985 7.07846 14.5385C7.29814 14.4795 7.4846 14.336 7.59818 14.1389C7.71176 13.9417 7.74177 13.7071 7.68176 13.4875C7.62283 13.2689 7.47816 13.0814 7.281 12.9679L2.78256 10.3934L21.8624 2.32618L16.7305 21.3641L11.7871 15.7191V15.7202C11.4764 15.3645 10.9352 15.3281 10.5784 15.6388C10.2226 15.9495 10.1851 16.4905 10.4969 16.8472L16.4957 23.7061V23.705C16.7036 23.945 17.0272 24.0489 17.3358 23.9782C17.6444 23.9064 17.8887 23.6696 17.9713 23.3643L23.97 1.08023C24.0868 0.648477 23.8532 0.199587 23.4321 0.048521C23.3656 0.0249512 23.296 0.00994799 23.2252 0.0035192ZM12.7827 10.283C12.5812 10.3012 12.3926 10.3891 12.2501 10.5326L6.25133 16.5377H6.25026C6.09059 16.6962 5.99951 16.9126 5.99736 17.1387V20.567C5.99736 20.7952 6.08738 21.0148 6.24919 21.1756C6.40993 21.3373 6.6296 21.4284 6.85787 21.4273C7.08612 21.4262 7.30365 21.3352 7.46331 21.1734C7.62405 21.0127 7.713 20.7942 7.71192 20.567V17.4922L13.4654 11.7488V11.7478C13.6272 11.5871 13.7183 11.3685 13.7183 11.1403C13.7183 10.9121 13.6272 10.6936 13.4654 10.5329C13.2865 10.3529 13.0357 10.2608 12.7828 10.2833L12.7827 10.283Z" fill="#F7F7F7"/>
</svg>
