<svg width="68" height="68" viewBox="0 0 68 68" fill="none" xmlns="http://www.w3.org/2000/svg">
<path d="M42.3173 65.8064C42.9228 65.8064 43.414 66.2977 43.414 66.9032C43.414 67.5087 42.9228 68 42.3173 68H7.55173C5.47531 68 3.58448 67.1488 2.21636 65.7779C0.848245 64.4097 0 62.519 0 60.4453V7.55743C0 5.4781 0.85117 3.58733 2.21636 2.22206L2.28205 2.16208C3.64732 0.828261 5.51242 0.00282899 7.55454 0.00282899H10.6392C11.2448 0.00282899 11.736 0.494096 11.736 1.0996C11.736 1.70511 11.2448 2.19638 10.6392 2.19638H7.55454C6.10643 2.19638 4.78401 2.77904 3.79582 3.74444C2.799 4.74411 2.19351 6.08364 2.19351 7.55741V60.4453C2.19351 61.9219 2.79616 63.2644 3.77008 64.2355C4.73831 65.2037 6.08077 65.8064 7.55454 65.8064H42.3201L42.3173 65.8064ZM34.8994 27.4281L48.7663 10.5656C48.9634 10.28 49.2947 10.0915 49.6689 10.0915H55.8468C56.0924 10.0972 56.338 10.1772 56.5408 10.3457C57.0064 10.7284 57.0749 11.4196 56.6894 11.8852L39.0583 33.3235L55.1926 56.1788C55.5411 56.6729 55.4211 57.3555 54.927 57.7039C54.7356 57.8382 54.5157 57.9039 54.2986 57.9039L45.9017 57.9067C45.5076 57.9067 45.162 57.6982 44.9678 57.3869L33.1007 40.5726L19.2338 57.433C19.0367 57.7186 18.7054 57.9071 18.3312 57.9071H12.1533C11.9077 57.9014 11.6621 57.8214 11.4593 57.6529C10.9937 57.2702 10.9252 56.5789 11.3108 56.1134L28.9418 34.678L12.8075 11.8198C12.459 11.3257 12.579 10.643 13.0731 10.2946C13.2645 10.1604 13.4844 10.0947 13.7015 10.0947H22.0984C22.4925 10.0947 22.8381 10.3032 23.0323 10.6145L34.9023 27.4317L34.8994 27.4281ZM25.6799 2.19355C25.0744 2.19355 24.5832 1.70228 24.5832 1.09677C24.5832 0.491267 25.0744 0 25.6799 0H60.4426C62.5219 0 64.4127 0.85117 65.7808 2.21636L65.8408 2.28205C67.1746 3.64732 68 5.51242 68 7.55454V60.4425C68 62.516 67.1488 64.4069 65.7779 65.7807C64.4069 67.1516 62.5161 68 60.4425 68H57.3607C56.7552 68 56.2639 67.5087 56.2639 66.9032C56.2639 66.2977 56.7552 65.8064 57.3607 65.8064H60.4425C61.9191 65.8064 63.2616 65.2038 64.2298 64.2355C65.2037 63.2645 65.8064 61.922 65.8064 60.4454V7.55746C65.8064 6.10651 65.2237 4.78694 64.2583 3.79875C63.2586 2.80192 61.9191 2.19643 60.4454 2.19643H25.6827L25.6799 2.19355Z" fill="white"/>
</svg>
