<svg width="27" height="20" viewBox="0 0 27 20" fill="none" xmlns="http://www.w3.org/2000/svg">
<path d="M17.4 10L17.8556 10.7961C18.1309 10.6303 18.3 10.3274 18.3 10C18.3 9.67258 18.1309 9.36966 17.8556 9.20394L17.4 10ZM10.5 5.84615L10.9556 5.05009C10.6773 4.88255 10.3328 4.88065 10.0528 5.04511C9.77277 5.20954 9.6 5.5152 9.6 5.84615H10.5ZM10.5 14.1538H9.6C9.6 14.4848 9.77277 14.7905 10.0528 14.9549C10.3328 15.1194 10.6773 15.1174 10.9556 14.9499L10.5 14.1538ZM1.93986 5.33751C2.0187 3.63372 3.2625 2.28711 4.87911 2.16089L4.74252 0.320061C2.17872 0.520215 0.261768 2.65862 0.141894 5.25003L1.93986 5.33751ZM1.8 9.94255C1.8 8.71092 1.86585 6.93754 1.93986 5.33751L0.141894 5.25003C0.067806 6.85163 0 8.66326 0 9.94255H1.8ZM1.94268 14.608C1.86753 12.9926 1.8 11.1899 1.8 9.94255H0C0 11.2379 0.069525 13.0793 0.14472 14.696L1.94268 14.608ZM4.82547 17.7732C3.23478 17.6268 2.02095 16.2912 1.94268 14.608L0.14472 14.696C0.263637 17.2528 2.13315 19.379 4.66464 19.612L4.82547 17.7732ZM13.5 18.1538C9.88899 18.1538 6.92094 17.966 4.82547 17.7732L4.66464 19.612C6.80658 19.8091 9.82872 20 13.5 20V18.1538ZM22.1574 17.7748C20.0629 17.967 17.1012 18.1538 13.5 18.1538V20C17.1613 20 20.177 19.8101 22.3178 19.6136L22.1574 17.7748ZM25.0496 14.5896C24.9719 16.2832 23.7535 17.6283 22.1574 17.7748L22.3178 19.6136C24.8598 19.3802 26.73 17.2394 26.8476 14.6765L25.0496 14.5896ZM25.2 9.94255C25.2 11.0173 25.1279 12.8851 25.0496 14.5896L26.8476 14.6765C26.9256 12.9781 27 11.0676 27 9.94255H25.2ZM25.0524 5.35572C25.1296 7.04425 25.2 8.88065 25.2 9.94255H27C27 8.83065 26.9273 6.95188 26.8504 5.26926L25.0524 5.35572ZM22.1031 2.15951C23.7254 2.28582 24.974 3.64179 25.0524 5.35572L26.8504 5.26926C26.7316 2.67157 24.8135 0.519077 22.2394 0.318646L22.1031 2.15951ZM13.5 1.84615C17.1249 1.84615 20.0397 1.99886 22.1031 2.15951L22.2394 0.318646C20.1344 0.154769 17.174 0 13.5 0V1.84615ZM4.87911 2.16089C6.94359 1.99972 9.86472 1.84615 13.5 1.84615V0C9.81546 0 6.84864 0.155661 4.74252 0.320061L4.87911 2.16089ZM17.8556 9.20394L10.9556 5.05009L10.0444 6.64222L16.9444 10.7961L17.8556 9.20394ZM10.9556 14.9499L17.8556 10.7961L16.9444 9.20394L10.0444 13.3578L10.9556 14.9499ZM9.6 5.84615V14.1538H11.4V5.84615H9.6Z" fill="#F7F7F7"/>
</svg>
